<?xml version="1.0" encoding="UTF-8" standalone="no"?>
<!-- Created with Inkscape (http://www.inkscape.org/) -->

<svg
   xmlns:dc="http://purl.org/dc/elements/1.1/"
   xmlns:cc="http://creativecommons.org/ns#"
   xmlns:rdf="http://www.w3.org/1999/02/22-rdf-syntax-ns#"
   xmlns:svg="http://www.w3.org/2000/svg"
   xmlns="http://www.w3.org/2000/svg"
   xmlns:inkscape="http://www.inkscape.org/namespaces/inkscape"
   version="1.1"
   width="408.21249"
   height="504.60001"
   id="svg2"
   xml:space="preserve"><metadata
     id="metadata8"><rdf:RDF><cc:Work
         rdf:about=""><dc:format>image/svg+xml</dc:format><dc:type
           rdf:resource="http://purl.org/dc/dcmitype/StillImage" /></cc:Work></rdf:RDF></metadata><defs
     id="defs6" /><g
     transform="matrix(1.25,0,0,-1.25,0,504.6)"
     id="g10"><g
       transform="scale(0.1,0.1)"
       id="g12"><path
         d="M 113.906,1758.32 C 53.0547,1648.79 23.9062,1528.32 3.90625,1408.32 -26.0938,1098.33 33.9062,758.332 293.906,548.332 673.906,248.332 1168.91,250 1398.91,700 1278.91,300 1213.93,281.672 873.926,11.6719 c 340.004,0 722.184,2 1337.484,-11.6719 10,0 20,10 10,20 -330,290 -289.99,260 -390,660 110.01,-210 212.48,-271.668 442.48,-301.668 340,-40 720,70 880,400 180,379.998 150,829.988 -130,1159.988 -330,390.01 -692.5,391.68 -1042.5,771.68 -140,140 -289.98,290 -359.98,470 -10,-10 -40,0 -40,-20 -10,-90 -293.33,-363.33 -343.33,-433.33 -369.998,-470 -554.174,-268.34 -954.174,-718.35 -70,-80 -120,-160 -170,-250"
         inkscape:connector-curvature="0"
         id="path14"
         style="fill:#231f20;fill-opacity:1;fill-rule:nonzero;stroke:none" /></g></g></svg>